<svg width="30" height="27" viewBox="0 0 30 27" fill="none" xmlns="http://www.w3.org/2000/svg">
<mask id="path-1-outside-1_1442_2797" maskUnits="userSpaceOnUse" x="0" y="0" width="30" height="27" fill="black">
<rect fill="white" width="30" height="27"/>
<path d="M10.7031 14.2051C10.2148 13.7656 10.2148 12.9355 10.7031 12.4961L17.7344 5.85547C18.0762 5.51367 18.5645 5.46484 19.0039 5.61133C19.4434 5.80664 19.6875 6.24609 19.6875 6.73438V10.25H25.9375C26.8164 10.25 27.5 10.9336 27.5 11.8125V14.9375C27.5 15.7676 26.8164 16.5 25.9375 16.5H19.6875V20.0156C19.6875 20.4551 19.4434 20.8945 19.0039 21.0898C18.5645 21.2363 18.0762 21.1875 17.7344 20.8457L10.7031 14.2051ZM7.1875 24.3125C4.59961 24.3125 2.5 22.2129 2.5 19.625L2.5 7.125C2.5 4.48828 4.59961 2.4375 7.1875 2.4375H10.3125C11.1914 2.4375 11.875 3.12109 11.875 4C11.875 4.83008 11.1914 5.5625 10.3125 5.5625H7.1875C6.35742 5.5625 5.625 6.24609 5.625 7.125L5.625 19.625C5.625 20.4551 6.35742 21.1875 7.1875 21.1875H10.3125C11.1914 21.1875 11.875 21.8711 11.875 22.75C11.875 23.5801 11.1914 24.3125 10.3125 24.3125H7.1875Z"/>
</mask>
<path d="M10.7031 14.2051L12.0764 12.7511L12.0589 12.7346L12.0411 12.7185L10.7031 14.2051ZM10.7031 12.4961L12.0411 13.9827L12.0589 13.9666L12.0764 13.9501L10.7031 12.4961ZM17.7344 5.85547L19.1076 7.3095L19.1284 7.28988L19.1486 7.26968L17.7344 5.85547ZM19.0039 5.61133L19.8162 3.78371L19.728 3.74449L19.6364 3.71396L19.0039 5.61133ZM19.6875 10.25H17.6875V12.25H19.6875V10.25ZM19.6875 16.5V14.5H17.6875V16.5H19.6875ZM19.0039 21.0898L19.6364 22.9872L19.728 22.9567L19.8162 22.9175L19.0039 21.0898ZM17.7344 20.8457L19.1486 19.4315L19.1284 19.4113L19.1076 19.3917L17.7344 20.8457ZM12.0411 12.7185C12.2694 12.924 12.3369 13.1736 12.3369 13.3506C12.3369 13.5276 12.2694 13.7772 12.0411 13.9827L9.3652 11.0095C7.99415 12.2434 7.99415 14.4577 9.3652 15.6917L12.0411 12.7185ZM12.0764 13.9501L19.1076 7.3095L16.3611 4.40144L9.32988 11.0421L12.0764 13.9501ZM19.1486 7.26968C19.0021 7.41614 18.8201 7.49662 18.6613 7.52308C18.5173 7.54709 18.4181 7.52425 18.3715 7.50869L19.6364 3.71396C18.6871 3.39753 17.3373 3.42408 16.3202 4.44126L19.1486 7.26968ZM18.1916 7.43895C18.0156 7.36073 17.8767 7.22882 17.7908 7.08407C17.7091 6.94647 17.6875 6.82072 17.6875 6.73438H21.6875C21.6875 5.58841 21.0918 4.35066 19.8162 3.78371L18.1916 7.43895ZM17.6875 6.73438V10.25H21.6875V6.73438H17.6875ZM19.6875 12.25L25.9375 12.25L25.9375 8.25H19.6875V12.25ZM25.9375 12.25C25.8455 12.25 25.7277 12.2095 25.6341 12.1159C25.5405 12.0223 25.5 11.9045 25.5 11.8125H29.5C29.5 9.82902 27.921 8.25 25.9375 8.25L25.9375 12.25ZM25.5 11.8125V14.9375H29.5L29.5 11.8125H25.5ZM25.5 14.9375C25.5 14.8008 25.5545 14.697 25.619 14.6311C25.6894 14.5591 25.8043 14.5 25.9375 14.5V18.5C27.9613 18.5 29.5 16.8314 29.5 14.9375H25.5ZM25.9375 14.5L19.6875 14.5V18.5H25.9375V14.5ZM17.6875 16.5V20.0156H21.6875V16.5H17.6875ZM17.6875 20.0156C17.6875 19.7505 17.8336 19.4214 18.1916 19.2622L19.8162 22.9175C21.0531 22.3677 21.6875 21.1597 21.6875 20.0156H17.6875ZM18.3715 19.1925C18.4181 19.1769 18.5173 19.1541 18.6613 19.1781C18.8201 19.2046 19.0021 19.285 19.1486 19.4315L16.3202 22.2599C17.3373 23.2771 18.6871 23.3036 19.6364 22.9872L18.3715 19.1925ZM19.1076 19.3917L12.0764 12.7511L9.32988 15.6591L16.3611 22.2997L19.1076 19.3917ZM7.1875 22.3125C5.70418 22.3125 4.5 21.1083 4.5 19.625H0.5C0.5 23.3175 3.49504 26.3125 7.1875 26.3125V22.3125ZM4.5 19.625L4.5 7.125H0.5L0.5 19.625H4.5ZM4.5 7.125C4.5 5.60644 5.69054 4.4375 7.1875 4.4375V0.4375C3.50868 0.4375 0.5 3.37012 0.5 7.125H4.5ZM7.1875 4.4375H10.3125V0.4375H7.1875V4.4375ZM10.3125 4.4375C10.2205 4.4375 10.1027 4.39695 10.0091 4.30337C9.91555 4.2098 9.875 4.09202 9.875 4H13.875C13.875 2.01652 12.296 0.4375 10.3125 0.4375V4.4375ZM9.875 4C9.875 3.86334 9.92954 3.75946 9.994 3.6936C10.0644 3.62165 10.1793 3.5625 10.3125 3.5625V7.5625C12.3363 7.5625 13.875 5.89388 13.875 4H9.875ZM10.3125 3.5625H7.1875V7.5625H10.3125V3.5625ZM7.1875 3.5625C5.29362 3.5625 3.625 5.10119 3.625 7.125H7.625C7.625 7.25822 7.56585 7.37307 7.4939 7.4435C7.42804 7.50796 7.32416 7.5625 7.1875 7.5625V3.5625ZM3.625 7.125L3.625 19.625H7.625L7.625 7.125H3.625ZM3.625 19.625C3.625 21.5596 5.25285 23.1875 7.1875 23.1875V19.1875C7.36493 19.1875 7.46725 19.2614 7.50918 19.3033C7.55112 19.3453 7.625 19.4476 7.625 19.625H3.625ZM7.1875 23.1875H10.3125V19.1875L7.1875 19.1875V23.1875ZM10.3125 23.1875C10.2205 23.1875 10.1027 23.147 10.0091 23.0534C9.91555 22.9598 9.875 22.842 9.875 22.75L13.875 22.75C13.875 20.7665 12.296 19.1875 10.3125 19.1875V23.1875ZM9.875 22.75C9.875 22.6133 9.92954 22.5095 9.994 22.4436C10.0644 22.3716 10.1793 22.3125 10.3125 22.3125V26.3125C12.3363 26.3125 13.875 24.6439 13.875 22.75L9.875 22.75ZM10.3125 22.3125H7.1875V26.3125H10.3125V22.3125Z" fill="#222222" mask="url(#path-1-outside-1_1442_2797)"/>
</svg>
