<svg width="30" height="27" viewBox="0 0 30 27" fill="none" xmlns="http://www.w3.org/2000/svg">
<mask id="path-1-outside-1_1442_2797" maskUnits="userSpaceOnUse" x="0" y="0" width="30" height="27" fill="black">
<rect fill="white" width="30" height="27"/>
<path d="M19.2969 12.7949C19.7852 13.2344 19.7852 14.0645 19.2969 14.5039L12.2656 21.1445C11.9238 21.4863 11.4355 21.5352 10.9961 21.3887C10.5566 21.1934 10.3125 20.7539 10.3125 20.2656V16.75H4.0625C3.18359 16.75 2.5 16.0664 2.5 15.1875V12.0625C2.5 11.2324 3.18359 10.5 4.0625 10.5H10.3125V6.98438C10.3125 6.54492 10.5566 6.10547 10.9961 5.91016C11.4355 5.76367 11.9238 5.8125 12.2656 6.1543L19.2969 12.7949ZM22.8125 2.6875C25.4004 2.6875 27.5 4.78711 27.5 7.375V19.875C27.5 22.5117 25.4004 24.5625 22.8125 24.5625H19.6875C18.8086 24.5625 18.125 23.8789 18.125 23C18.125 22.1699 18.8086 21.4375 19.6875 21.4375H22.8125C23.6426 21.4375 24.375 20.7539 24.375 19.875V7.375C24.375 6.54492 23.6426 5.8125 22.8125 5.8125H19.6875C18.8086 5.8125 18.125 5.12891 18.125 4.25C18.125 3.41992 18.8086 2.6875 19.6875 2.6875H22.8125Z"/>
</mask>
<path d="M19.2969 12.7949L17.9236 14.2489L17.9411 14.2654L17.9589 14.2815L19.2969 12.7949ZM19.2969 14.5039L17.9589 13.0173L17.9411 13.0334L17.9236 13.0499L19.2969 14.5039ZM12.2656 21.1445L10.8924 19.6905L10.8716 19.7101L10.8514 19.7303L12.2656 21.1445ZM10.9961 21.3887L10.1838 23.2163L10.272 23.2555L10.3636 23.286L10.9961 21.3887ZM10.3125 16.75H12.3125V14.75H10.3125V16.75ZM10.3125 10.5V12.5H12.3125V10.5H10.3125ZM10.9961 5.91016L10.3636 4.01279L10.272 4.04332L10.1838 4.08253L10.9961 5.91016ZM12.2656 6.1543L10.8514 7.56851L10.8716 7.58871L10.8924 7.60832L12.2656 6.1543ZM17.9589 14.2815C17.7306 14.076 17.6631 13.8264 17.6631 13.6494C17.6631 13.4724 17.7306 13.2228 17.9589 13.0173L20.6348 15.9905C22.0058 14.7566 22.0058 12.5423 20.6348 11.3083L17.9589 14.2815ZM17.9236 13.0499L10.8924 19.6905L13.6389 22.5986L20.6701 15.9579L17.9236 13.0499ZM10.8514 19.7303C10.9979 19.5839 11.1799 19.5034 11.3387 19.4769C11.4827 19.4529 11.5819 19.4758 11.6285 19.4913L10.3636 23.286C11.3129 23.6025 12.6627 23.5759 13.6798 22.5587L10.8514 19.7303ZM11.8084 19.561C11.9844 19.6393 12.1233 19.7712 12.2092 19.9159C12.2909 20.0535 12.3125 20.1793 12.3125 20.2656H8.3125C8.3125 21.4116 8.90817 22.6493 10.1838 23.2163L11.8084 19.561ZM12.3125 20.2656V16.75H8.3125V20.2656H12.3125ZM10.3125 14.75H4.0625V18.75H10.3125V14.75ZM4.0625 14.75C4.15452 14.75 4.2723 14.7905 4.36587 14.8841C4.45945 14.9777 4.5 15.0955 4.5 15.1875H0.5C0.5 17.171 2.07902 18.75 4.0625 18.75V14.75ZM4.5 15.1875V12.0625H0.5V15.1875H4.5ZM4.5 12.0625C4.5 12.1992 4.44546 12.303 4.381 12.3689C4.31057 12.4409 4.19572 12.5 4.0625 12.5V8.5C2.03869 8.5 0.5 10.1686 0.5 12.0625H4.5ZM4.0625 12.5H10.3125V8.5H4.0625V12.5ZM12.3125 10.5V6.98438H8.3125V10.5H12.3125ZM12.3125 6.98438C12.3125 7.24953 12.1664 7.57865 11.8084 7.73778L10.1838 4.08253C8.94686 4.63229 8.3125 5.84031 8.3125 6.98438H12.3125ZM11.6285 7.80752C11.5819 7.82308 11.4827 7.84592 11.3387 7.82191C11.1799 7.79545 10.9979 7.71497 10.8514 7.56851L13.6798 4.74008C12.6627 3.7229 11.3129 3.69636 10.3636 4.01279L11.6285 7.80752ZM10.8924 7.60832L17.9236 14.2489L20.6701 11.3409L13.6389 4.70027L10.8924 7.60832ZM22.8125 4.6875C24.2958 4.6875 25.5 5.89168 25.5 7.375H29.5C29.5 3.68254 26.505 0.6875 22.8125 0.6875V4.6875ZM25.5 7.375V19.875H29.5V7.375H25.5ZM25.5 19.875C25.5 21.3936 24.3095 22.5625 22.8125 22.5625V26.5625C26.4913 26.5625 29.5 23.6299 29.5 19.875H25.5ZM22.8125 22.5625H19.6875V26.5625H22.8125V22.5625ZM19.6875 22.5625C19.7795 22.5625 19.8973 22.603 19.9909 22.6966C20.0845 22.7902 20.125 22.908 20.125 23H16.125C16.125 24.9835 17.704 26.5625 19.6875 26.5625V22.5625ZM20.125 23C20.125 23.1367 20.0705 23.2405 20.006 23.3064C19.9356 23.3784 19.8207 23.4375 19.6875 23.4375V19.4375C17.6637 19.4375 16.125 21.1061 16.125 23H20.125ZM19.6875 23.4375H22.8125V19.4375H19.6875V23.4375ZM22.8125 23.4375C24.7064 23.4375 26.375 21.8988 26.375 19.875H22.375C22.375 19.7418 22.4341 19.6269 22.5061 19.5565C22.572 19.492 22.6758 19.4375 22.8125 19.4375V23.4375ZM26.375 19.875V7.375H22.375V19.875H26.375ZM26.375 7.375C26.375 5.44035 24.7471 3.8125 22.8125 3.8125V7.8125C22.6351 7.8125 22.5328 7.73862 22.4908 7.69668C22.4489 7.65475 22.375 7.55243 22.375 7.375H26.375ZM22.8125 3.8125H19.6875V7.8125H22.8125V3.8125ZM19.6875 3.8125C19.7795 3.8125 19.8973 3.85305 19.9909 3.94663C20.0845 4.0402 20.125 4.15798 20.125 4.25H16.125C16.125 6.23348 17.704 7.8125 19.6875 7.8125V3.8125ZM20.125 4.25C20.125 4.38666 20.0705 4.49054 20.006 4.5564C19.9356 4.62835 19.8207 4.6875 19.6875 4.6875V0.6875C17.6637 0.6875 16.125 2.35612 16.125 4.25H20.125ZM19.6875 4.6875H22.8125V0.6875H19.6875V4.6875Z" fill="#222222" mask="url(#path-1-outside-1_1442_2797)"/>
</svg>
