<svg width="400" height="340" viewBox="0 0 400 340" fill="none" xmlns="http://www.w3.org/2000/svg">
<g clip-path="url(#clip0_2150_98)">
<rect width="400" height="340" fill="#D9D9D9"/>
<path d="M79.7101 157.659V161.654H73.6941V172.652H68.8531V147.131H73.6941V157.659H79.7101ZM62.6961 170.396C60.4088 169.581 58.4348 168.406 56.7741 166.871C55.1448 165.304 53.8758 163.518 52.9671 161.513C52.0271 163.863 50.6954 165.9 48.9721 167.623C47.2488 169.346 45.1651 170.662 42.7211 171.571L40.1361 167.717C41.7968 167.153 43.2694 166.385 44.5541 165.414C45.8388 164.443 46.9198 163.33 47.7971 162.077C48.6744 160.824 49.3324 159.476 49.7711 158.035C50.2098 156.562 50.4291 155.058 50.4291 153.523V149.34H55.3171V153.899C55.3171 155.278 55.5364 156.609 55.9751 157.894C56.4138 159.179 57.0561 160.385 57.9021 161.513C58.7481 162.61 59.7821 163.597 61.0041 164.474C62.2574 165.351 63.6674 166.056 65.2341 166.589L62.6961 170.396ZM60.0171 173.686C64.4351 173.686 67.8974 174.391 70.4041 175.801C72.9108 177.18 74.1641 179.122 74.1641 181.629C74.1641 182.882 73.8351 184.01 73.1771 185.013C72.5504 185.984 71.6261 186.815 70.4041 187.504C69.1821 188.193 67.6938 188.71 65.9391 189.055C64.2158 189.431 62.2418 189.619 60.0171 189.619C57.8238 189.619 55.8498 189.431 54.0951 189.055C52.3718 188.71 50.8991 188.193 49.6771 187.504C48.4551 186.815 47.5151 185.984 46.8571 185.013C46.1991 184.01 45.8701 182.882 45.8701 181.629C45.8701 180.376 46.1991 179.263 46.8571 178.292C47.5151 177.289 48.4551 176.459 49.6771 175.801C50.8991 175.112 52.3718 174.595 54.0951 174.25C55.8498 173.874 57.8238 173.686 60.0171 173.686ZM60.0171 185.812C63.0564 185.812 65.3751 185.467 66.9731 184.778C68.5711 184.089 69.3701 183.039 69.3701 181.629C69.3701 180.313 68.5711 179.295 66.9731 178.574C65.3751 177.853 63.0564 177.493 60.0171 177.493C56.9778 177.493 54.6591 177.853 53.0611 178.574C51.4631 179.295 50.6641 180.313 50.6641 181.629C50.6641 183.039 51.4631 184.089 53.0611 184.778C54.6591 185.467 56.9778 185.812 60.0171 185.812ZM93.1954 152.301H87.1794V148.4H118.622V152.301H112.653V160.103H118.387V164.004H87.4144V160.103H93.1954V152.301ZM107.812 152.301H98.0364V160.103H107.812V152.301ZM105.368 171.289V175.613H117.494V189.102H88.3544V175.613H100.527V171.289H83.7484V167.388H122.147V171.289H105.368ZM112.747 179.467H93.1484V185.248H112.747V179.467ZM172.464 147.131V189.713H167.576V147.131H172.464ZM149.857 150.28C151.455 150.28 152.912 150.64 154.228 151.361C155.575 152.05 156.734 153.053 157.706 154.369C158.677 155.654 159.429 157.22 159.962 159.069C160.526 160.886 160.808 162.939 160.808 165.226C160.808 167.513 160.526 169.597 159.962 171.477C159.429 173.326 158.677 174.892 157.706 176.177C156.734 177.462 155.575 178.464 154.228 179.185C152.912 179.874 151.455 180.219 149.857 180.219C148.29 180.219 146.833 179.874 145.486 179.185C144.17 178.464 143.026 177.462 142.055 176.177C141.083 174.892 140.316 173.326 139.752 171.477C139.219 169.597 138.953 167.513 138.953 165.226C138.953 162.939 139.219 160.886 139.752 159.069C140.316 157.22 141.083 155.654 142.055 154.369C143.026 153.053 144.17 152.05 145.486 151.361C146.833 150.64 148.29 150.28 149.857 150.28ZM149.857 154.651C147.977 154.651 146.457 155.591 145.298 157.471C144.17 159.32 143.606 161.905 143.606 165.226C143.606 168.641 144.17 171.273 145.298 173.122C146.457 174.971 147.977 175.895 149.857 175.895C151.737 175.895 153.256 174.971 154.416 173.122C155.575 171.273 156.155 168.641 156.155 165.226C156.155 161.905 155.575 159.32 154.416 157.471C153.256 155.591 151.737 154.651 149.857 154.651ZM215.7 147.131V189.713H210.812V147.131H215.7ZM202.963 151.173V179.232H183.035V151.173H202.963ZM187.782 155.027V175.331H198.216V155.027H187.782ZM258.936 147.178V189.619H254.048V147.178H258.936ZM239.666 159.445C239.666 161.231 239.917 163.001 240.418 164.756C240.951 166.479 241.703 168.109 242.674 169.644C243.645 171.148 244.805 172.511 246.152 173.733C247.499 174.955 249.003 175.926 250.664 176.647L247.985 180.454C245.51 179.357 243.348 177.728 241.499 175.566C239.682 173.404 238.272 170.944 237.269 168.187C236.799 169.66 236.204 171.07 235.483 172.417C234.794 173.764 233.995 175.018 233.086 176.177C232.177 177.336 231.175 178.37 230.078 179.279C229.013 180.188 227.853 180.94 226.6 181.535L223.827 177.681C225.488 176.929 226.976 175.895 228.292 174.579C229.639 173.263 230.799 171.79 231.77 170.161C232.741 168.5 233.478 166.746 233.979 164.897C234.512 163.048 234.778 161.231 234.778 159.445V155.403H225.331V151.408H249.113V155.403H239.666V159.445ZM300.228 160.714C300.009 161.905 299.57 163.001 298.912 164.004C298.286 164.975 297.502 165.821 296.562 166.542C295.622 167.231 294.541 167.764 293.319 168.14C292.097 168.516 290.781 168.704 289.371 168.704C287.773 168.704 286.301 168.469 284.953 167.999C283.606 167.498 282.431 166.824 281.428 165.978C280.457 165.101 279.689 164.051 279.125 162.829C278.593 161.607 278.326 160.26 278.326 158.787C278.326 157.346 278.593 156.03 279.125 154.839C279.689 153.617 280.457 152.583 281.428 151.737C282.431 150.86 283.606 150.186 284.953 149.716C286.301 149.215 287.773 148.964 289.371 148.964C290.75 148.964 292.05 149.152 293.272 149.528C294.494 149.904 295.575 150.437 296.515 151.126C297.455 151.784 298.239 152.599 298.865 153.57C299.523 154.51 299.962 155.56 300.181 156.719H308.077V147.225H312.918V169.644H308.077V160.714H300.228ZM282.979 158.787C282.979 160.573 283.575 162.014 284.765 163.111C285.956 164.176 287.491 164.709 289.371 164.709C290.311 164.709 291.173 164.568 291.956 164.286C292.74 164.004 293.413 163.612 293.977 163.111C294.541 162.578 294.98 161.952 295.293 161.231C295.638 160.479 295.81 159.664 295.81 158.787C295.81 157.001 295.199 155.591 293.977 154.557C292.787 153.492 291.251 152.959 289.371 152.959C287.491 152.959 285.956 153.492 284.765 154.557C283.575 155.591 282.979 157.001 282.979 158.787ZM309.863 175.143C309.863 176.271 310.004 177.383 310.286 178.48C310.6 179.545 311.054 180.548 311.649 181.488C312.276 182.428 313.059 183.274 313.999 184.026C314.939 184.778 316.052 185.389 317.336 185.859L314.939 189.525C313.059 188.804 311.493 187.786 310.239 186.47C309.017 185.185 308.077 183.728 307.419 182.099C306.699 183.697 305.727 185.138 304.505 186.423C303.315 187.739 301.811 188.773 299.993 189.525L297.549 185.859C298.834 185.326 299.946 184.668 300.886 183.885C301.826 183.102 302.61 182.24 303.236 181.3C303.863 180.329 304.317 179.326 304.599 178.292C304.913 177.227 305.069 176.177 305.069 175.143V171.759H309.863V175.143ZM297.549 172.088V189.102H282.509V172.088H287.021V176.882H293.084V172.088H297.549ZM293.084 180.454H287.021V185.389H293.084V180.454ZM340.175 148.071C342.493 148.071 344.577 148.259 346.426 148.635C348.306 149.011 349.904 149.544 351.22 150.233C352.536 150.922 353.538 151.768 354.228 152.771C354.948 153.774 355.309 154.917 355.309 156.202C355.309 157.455 354.948 158.583 354.228 159.586C353.538 160.589 352.536 161.45 351.22 162.171C349.904 162.86 348.306 163.393 346.426 163.769C344.577 164.145 342.493 164.333 340.175 164.333C337.856 164.333 335.757 164.145 333.877 163.769C332.028 163.393 330.446 162.86 329.13 162.171C327.814 161.45 326.795 160.589 326.075 159.586C325.385 158.583 325.041 157.455 325.041 156.202C325.041 154.917 325.385 153.774 326.075 152.771C326.795 151.768 327.814 150.922 329.13 150.233C330.446 149.544 332.028 149.011 333.877 148.635C335.757 148.259 337.856 148.071 340.175 148.071ZM340.175 151.831C336.947 151.831 334.441 152.207 332.655 152.959C330.9 153.711 330.023 154.792 330.023 156.202C330.023 157.612 330.9 158.693 332.655 159.445C334.441 160.166 336.947 160.526 340.175 160.526C343.402 160.526 345.893 160.166 347.648 159.445C349.402 158.693 350.28 157.612 350.28 156.202C350.28 154.792 349.402 153.711 347.648 152.959C345.893 152.207 343.402 151.831 340.175 151.831ZM359.351 167.435V171.289H320.952V167.435H359.351ZM354.698 174.908V189.102H325.558V174.908H354.698ZM330.352 178.762V185.248H349.951V178.762H330.352Z" fill="#222222"/>
</g>
<defs>
<clipPath id="clip0_2150_98">
<rect width="400" height="340" fill="white"/>
</clipPath>
</defs>
</svg>
