<svg width="19" height="20" viewBox="0 0 19 20" fill="none" xmlns="http://www.w3.org/2000/svg">
<g clip-path="url(#clip0_312_25322)">
<path d="M4.75 5.75L3.06375 3.98333L4.18 2.80833L5.85833 4.58333L4.75 5.75ZM10.2917 0.833333V3.33333H8.70833V0.833333H10.2917ZM15.9362 3.98333L14.25 5.75L13.1417 4.58333L14.82 2.80833L15.9362 3.98333ZM3.5625 8.75V10.4167H1.1875V8.75H3.5625ZM15.4375 8.75H17.8125V10.4167H15.4375V8.75ZM4.75 16.6667H14.25C14.6699 16.6667 15.0727 16.8423 15.3696 17.1548C15.6665 17.4674 15.8333 17.8913 15.8333 18.3333H3.16667C3.16667 17.8913 3.33348 17.4674 3.63041 17.1548C3.92735 16.8423 4.33007 16.6667 4.75 16.6667ZM9.5 4.16667C10.7598 4.16667 11.968 4.69345 12.8588 5.63113C13.7496 6.56881 14.25 7.84058 14.25 9.16667V15.8333H4.75V9.16667C4.75 7.84058 5.25045 6.56881 6.14124 5.63113C7.03204 4.69345 8.24022 4.16667 9.5 4.16667Z" fill="white"/>
<path d="M4.75 5.75L3.06375 3.98333L4.18 2.80833L5.85833 4.58333L4.75 5.75ZM10.2917 0.833333V3.33333H8.70833V0.833333H10.2917ZM15.9362 3.98333L14.25 5.75L13.1417 4.58333L14.82 2.80833L15.9362 3.98333ZM3.5625 8.75V10.4167H1.1875V8.75H3.5625ZM15.4375 8.75H17.8125V10.4167H15.4375V8.75ZM4.75 16.6667H14.25C14.6699 16.6667 15.0727 16.8423 15.3696 17.1548C15.6665 17.4674 15.8333 17.8913 15.8333 18.3333H3.16667C3.16667 17.8913 3.33348 17.4674 3.63041 17.1548C3.92735 16.8423 4.33007 16.6667 4.75 16.6667ZM9.5 4.16667C10.7598 4.16667 11.968 4.69345 12.8588 5.63113C13.7496 6.56881 14.25 7.84058 14.25 9.16667V15.8333H4.75V9.16667C4.75 7.84058 5.25045 6.56881 6.14124 5.63113C7.03204 4.69345 8.24022 4.16667 9.5 4.16667Z" fill="#222222"/>
<path d="M4.75 5.75L3.06375 3.98333L4.18 2.80833L5.85833 4.58333L4.75 5.75ZM10.2917 0.833333V3.33333H8.70833V0.833333H10.2917ZM15.9362 3.98333L14.25 5.75L13.1417 4.58333L14.82 2.80833L15.9362 3.98333ZM3.5625 8.75V10.4167H1.1875V8.75H3.5625ZM15.4375 8.75H17.8125V10.4167H15.4375V8.75ZM4.75 16.6667H14.25C14.6699 16.6667 15.0727 16.8423 15.3696 17.1548C15.6665 17.4674 15.8333 17.8913 15.8333 18.3333H3.16667C3.16667 17.8913 3.33348 17.4674 3.63041 17.1548C3.92735 16.8423 4.33007 16.6667 4.75 16.6667ZM9.5 4.16667C10.7598 4.16667 11.968 4.69345 12.8588 5.63113C13.7496 6.56881 14.25 7.84058 14.25 9.16667V15.8333H4.75V9.16667C4.75 7.84058 5.25045 6.56881 6.14124 5.63113C7.03204 4.69345 8.24022 4.16667 9.5 4.16667Z" fill="#C7C6C6"/>
<path d="M4.75 5.75L3.06375 3.98333L4.18 2.80833L5.85833 4.58333L4.75 5.75ZM10.2917 0.833333V3.33333H8.70833V0.833333H10.2917ZM15.9362 3.98333L14.25 5.75L13.1417 4.58333L14.82 2.80833L15.9362 3.98333ZM3.5625 8.75V10.4167H1.1875V8.75H3.5625ZM15.4375 8.75H17.8125V10.4167H15.4375V8.75ZM4.75 16.6667H14.25C14.6699 16.6667 15.0727 16.8423 15.3696 17.1548C15.6665 17.4674 15.8333 17.8913 15.8333 18.3333H3.16667C3.16667 17.8913 3.33348 17.4674 3.63041 17.1548C3.92735 16.8423 4.33007 16.6667 4.75 16.6667ZM9.5 4.16667C10.7598 4.16667 11.968 4.69345 12.8588 5.63113C13.7496 6.56881 14.25 7.84058 14.25 9.16667V15.8333H4.75V9.16667C4.75 7.84058 5.25045 6.56881 6.14124 5.63113C7.03204 4.69345 8.24022 4.16667 9.5 4.16667Z" fill="#EF6253"/>
</g>
<defs>
<clipPath id="clip0_312_25322">
<rect width="19" height="20" fill="white"/>
</clipPath>
</defs>
</svg>
