<svg width="21" height="21" viewBox="0 0 21 21" fill="none" xmlns="http://www.w3.org/2000/svg">
<path d="M18.6437 4.29229L17.487 5.19668C15.91 3.18076 13.4572 1.88672 10.703 1.88672C5.94727 1.88672 2.09796 5.73193 2.0918 10.4897C2.08565 15.2517 5.94317 19.1133 10.703 19.1133C14.4211 19.1133 17.5896 16.7549 18.7954 13.4511C18.8262 13.3649 18.7811 13.2686 18.6949 13.2398L17.5321 12.8399C17.4916 12.826 17.4472 12.8286 17.4085 12.847C17.3698 12.8654 17.3398 12.8982 17.325 12.9384C17.2881 13.0409 17.2471 13.1435 17.204 13.2439C16.8492 14.0848 16.3406 14.8395 15.6926 15.4875C15.0498 16.1315 14.2887 16.6454 13.4511 17.001C12.5836 17.3681 11.6587 17.5547 10.7071 17.5547C9.75352 17.5547 8.83067 17.3681 7.96319 17.001C7.12478 16.6469 6.36342 16.1328 5.72169 15.4875C5.07713 14.8448 4.56378 14.0828 4.21026 13.2439C3.84317 12.3744 3.65655 11.4516 3.65655 10.4979C3.65655 9.54434 3.84317 8.62148 4.21026 7.75195C4.56505 6.91113 5.07364 6.15645 5.72169 5.5084C6.36973 4.86035 7.12442 4.35176 7.96319 3.99492C8.83067 3.62783 9.75557 3.44121 10.7071 3.44121C11.6607 3.44121 12.5836 3.62783 13.4511 3.99492C14.2895 4.34898 15.0509 4.86306 15.6926 5.5084C15.8956 5.71143 16.0863 5.92676 16.2627 6.15234L15.0281 7.11621C15.0037 7.13511 14.9851 7.16051 14.9745 7.18951C14.9638 7.21851 14.9616 7.24991 14.968 7.28012C14.9745 7.31033 14.9893 7.33811 15.0108 7.36026C15.0323 7.38242 15.0597 7.39806 15.0897 7.40537L18.6908 8.28721C18.7934 8.31182 18.8939 8.23389 18.8939 8.1293L18.9103 4.41943C18.9082 4.28408 18.7503 4.2082 18.6437 4.29229Z" fill="#222222"/>
</svg>
