<svg width="26" height="30" viewBox="0 0 26 30" fill="none" xmlns="http://www.w3.org/2000/svg">
<mask id="path-1-outside-1_1442_2799" maskUnits="userSpaceOnUse" x="-0.5" y="0" width="27" height="30" fill="black">
<rect fill="white" x="-0.5" width="27" height="30"/>
<path d="M13 14.625C9.5332 14.625 6.75 11.8418 6.75 8.375C6.75 4.95703 9.5332 2.125 13 2.125C16.418 2.125 19.25 4.95703 19.25 8.375C19.25 11.8418 16.418 14.625 13 14.625ZM15.4414 16.9688C20.1289 16.9688 23.9375 20.7773 23.9375 25.4648C23.9375 26.3926 23.1562 27.125 22.2285 27.125H3.72266C2.79492 27.125 2.0625 26.3926 2.0625 25.4648C2.0625 20.7773 5.82227 16.9688 10.5098 16.9688H15.4414Z"/>
</mask>
<path d="M13 12.625C10.6378 12.625 8.75 10.7372 8.75 8.375H4.75C4.75 12.9464 8.42863 16.625 13 16.625V12.625ZM8.75 8.375C8.75 6.05142 10.6479 4.125 13 4.125V0.125C8.41848 0.125 4.75 3.86264 4.75 8.375H8.75ZM13 4.125C15.3134 4.125 17.25 6.0616 17.25 8.375H21.25C21.25 3.85246 17.5225 0.125 13 0.125V4.125ZM17.25 8.375C17.25 10.7271 15.3236 12.625 13 12.625V16.625C17.5124 16.625 21.25 12.9565 21.25 8.375H17.25ZM15.4414 18.9688C19.0243 18.9688 21.9375 21.8819 21.9375 25.4648H25.9375C25.9375 19.6728 21.2335 14.9688 15.4414 14.9688V18.9688ZM21.9375 25.4648C21.9375 25.3492 21.9902 25.2535 22.0453 25.2006C22.0963 25.1516 22.1618 25.125 22.2285 25.125V29.125C24.1847 29.125 25.9375 27.5718 25.9375 25.4648H21.9375ZM22.2285 25.125H3.72266V29.125H22.2285V25.125ZM3.72266 25.125C3.79759 25.125 3.88885 25.1586 3.95889 25.2286C4.02894 25.2987 4.0625 25.3899 4.0625 25.4648H0.0625C0.0625 27.4971 1.69035 29.125 3.72266 29.125V25.125ZM4.0625 25.4648C4.0625 21.8669 6.94183 18.9688 10.5098 18.9688V14.9688C4.7027 14.9688 0.0625 19.6878 0.0625 25.4648H4.0625ZM10.5098 18.9688H15.4414V14.9688H10.5098V18.9688Z" fill="#222222" mask="url(#path-1-outside-1_1442_2799)"/>
</svg>
