<svg width="35" height="41" viewBox="0 0 35 41" fill="none" xmlns="http://www.w3.org/2000/svg">
<path d="M12.4219 1.46875C13.0469 0.921875 13.9844 0.921875 14.6094 1.46875C16.7188 3.5 18.75 5.6875 20.625 8.03125C21.4844 6.9375 22.5 5.6875 23.5156 4.67188C24.1406 4.125 25.0781 4.125 25.7031 4.67188C28.4375 7.25 30.7031 10.6875 32.3438 13.8906C33.9062 17.0938 35 20.375 35 22.6406C35 32.6406 27.1875 41 17.5 41C7.65625 41 0 32.6406 0 22.6406C0 19.6719 1.32812 16 3.51562 12.3281C5.70312 8.65625 8.75 4.82812 12.4219 1.46875ZM17.5781 33.5C19.6094 33.5 21.3281 32.9531 22.9688 31.8594C26.25 29.5938 27.1094 24.9844 25.1562 21.3906C24.8438 20.6875 23.9062 20.6094 23.4375 21.2344L21.4062 23.5C20.9375 24.125 20 24.125 19.5312 23.5C18.2031 21.8594 15.9375 18.8906 14.6094 17.25C14.1406 16.625 13.2031 16.625 12.6562 17.25C10 20.5312 8.67188 22.6406 8.67188 24.9844C8.75 30.375 12.6562 33.5 17.5781 33.5Z" fill="#EF6253"/>
</svg>
